<svg id="Layer_4" data-name="Layer 4" xmlns="http://www.w3.org/2000/svg" viewBox="0 0 595.28 595.28"><defs><style>.cls-1{fill:#2fac66;}.cls-2{fill:#2c9b5c;}.cls-3,.cls-4,.cls-5{fill:none;stroke:#fff;}.cls-3,.cls-5{stroke-miterlimit:10;}.cls-3,.cls-4{stroke-width:14px;}.cls-4{stroke-linejoin:bevel;}.cls-5{stroke-width:13.97px;}</style></defs><title>Football Logo</title><rect class="cls-1" width="595.28" height="595.28"/><g id="Layer_5" data-name="Layer 5"><polygon class="cls-2" points="513.44 103.76 595.28 179.09 595.28 595.28 522.06 595.28 513.44 103.76"/><polygon class="cls-2" points="79.2 113.44 520.57 510.03 515.78 595.2 74.98 595.2 79.2 113.44"/></g><path class="cls-3" d="M426.06,109.8v98.35a9.65,9.65,0,0,1-9.64,9.65H174.9a9.65,9.65,0,0,1-9.65-9.65V109.8h70.94v25.06a12,12,0,0,0,12,12h94.94a12,12,0,0,0,12-12V109.8Z" transform="translate(0)"/><path class="cls-3" d="M515.78,595.2V118.62A8.82,8.82,0,0,0,507,109.8h-80.9" transform="translate(0)"/><path class="cls-3" d="M165.25,109.8H83.81A8.82,8.82,0,0,0,75,118.62V595.2" transform="translate(0)"/><line class="cls-3" x1="74.98" y1="449.98" x2="515.78" y2="449.98"/><circle class="cls-3" cx="295.38" cy="449.98" r="60.04"/><path class="cls-3" d="M249.31,217.8H342c0,19.47-27.5,29-46.34,29S249.31,237.71,249.31,217.8Z" transform="translate(0)"/><path class="cls-4" d="M406.67,291" transform="translate(0)"/><path class="cls-3" d="M445.27,352.5" transform="translate(0)"/><path class="cls-3" d="M406.67,352.5" transform="translate(0)"/><path class="cls-5" d="M515.78,118.62" transform="translate(0)"/></svg>